<?xml version="1.0" encoding="UTF-8"?>
<svg xmlns="http://www.w3.org/2000/svg" width="44" height="64" viewBox="0 0 44 64">
  <rect x="1" y="1" width="42" height="62" rx="6" fill="#ffffff" stroke="#cb2a1b" stroke-width="2"/>

  <g transform="translate(0,2)">
    <path d="M22 15c-6.1 0-11 4.9-11 11v10.5c0 2.1-1.4 3.8-3.4 4.2l-1.6.3v3h32v-3l-1.6-.3c-2-.4-3.4-2.1-3.4-4.2V26c0-6.1-4.9-11-11-11z" fill="#ffffff" stroke="#2b78b9" stroke-width="1.3"/>
    <circle cx="18" cy="28" r="1.7" fill="#2b78b9"/>
    <circle cx="26" cy="28" r="1.7" fill="#2b78b9"/>
    <path d="M16.8 34.5c1.3 1.2 2.9 1.8 5.2 1.8s3.9-.6 5.2-1.8" fill="none" stroke="#2b78b9" stroke-width="1.2" stroke-linecap="round"/>
  </g>

  <text x="22" y="57" text-anchor="middle" font-size="8" font-family="sans-serif" font-weight="700" fill="#cb2a1b">PASS</text>
</svg>
